<?xml version="1.0" standalone="no"?>
<!DOCTYPE svg PUBLIC "-//W3C//DTD SVG 20010904//EN"
 "http://www.w3.org/TR/2001/REC-SVG-20010904/DTD/svg10.dtd">
<svg version="1.0" xmlns="http://www.w3.org/2000/svg"
 width="535.000000pt" height="535.000000pt" viewBox="0 0 535.000000 535.000000"
 preserveAspectRatio="xMidYMid meet">
<metadata>
Created by potrace 1.14, written by Peter Selinger 2001-2017
</metadata>
<g transform="translate(0.000000,535.000000) scale(0.100000,-0.100000)"
fill="#000000" stroke="none">
<path d="M2575 5170 c-17 -19 -19 -41 -19 -247 -1 -224 0 -225 23 -244 28 -23
50 -24 77 -5 18 14 19 28 19 251 0 223 -1 237 -19 251 -28 20 -60 17 -81 -6z"/>
<path d="M1090 4660 c-40 -40 -29 -57 158 -243 186 -185 203 -196 242 -157 39
39 29 56 -158 242 -186 187 -203 197 -242 158z"/>
<path d="M3798 4502 c-185 -185 -197 -203 -159 -241 40 -40 62 -26 246 158
185 184 199 206 157 244 -40 37 -59 25 -244 -161z"/>
<path d="M2445 4293 c-125 -14 -295 -60 -395 -106 -36 -17 -68 -30 -72 -29 -5
1 -8 -3 -8 -9 0 -5 -4 -8 -9 -5 -5 3 -12 -1 -15 -10 -3 -8 -10 -13 -15 -10 -5
3 -14 -1 -21 -10 -7 -8 -20 -12 -29 -9 -8 3 -12 3 -9 -1 6 -5 -74 -74 -87 -74
-3 0 -18 -13 -33 -30 -16 -16 -32 -27 -35 -23 -4 3 -7 -1 -7 -10 0 -10 -7 -17
-15 -17 -8 0 -15 -7 -15 -16 0 -8 -4 -13 -8 -10 -4 2 -17 -9 -27 -25 -11 -16
-26 -29 -33 -29 -7 0 -11 -4 -8 -9 4 -5 -9 -25 -26 -44 -48 -52 -55 -61 -76
-101 -11 -19 -23 -32 -27 -28 -5 4 -5 2 -2 -4 3 -6 -6 -28 -20 -49 -14 -21
-19 -34 -12 -30 8 5 3 -4 -11 -20 -14 -16 -18 -25 -10 -20 8 5 4 -4 -10 -20
-14 -16 -18 -24 -10 -20 13 8 13 7 1 -8 -7 -9 -10 -17 -5 -17 5 0 3 -4 -4 -8
-7 -5 -15 -22 -18 -38 -3 -16 -8 -31 -12 -34 -7 -5 -8 -9 -16 -53 -3 -12 -5
-23 -7 -24 -1 -2 -2 -7 -3 -12 0 -5 -4 -13 -8 -17 -4 -4 -3 -13 3 -21 6 -7 7
-13 2 -13 -5 0 -10 -6 -11 -12 -1 -7 -4 -31 -7 -53 -3 -22 -7 -67 -8 -100 -1
-33 -6 -66 -10 -72 -5 -8 -3 -13 4 -13 8 0 8 -4 2 -12 -6 -7 -10 -25 -9 -40 1
-16 -1 -28 -4 -28 -3 0 -5 -15 -5 -32 0 -18 -3 -38 -7 -43 -4 -6 -9 -24 -12
-40 -3 -17 -10 -31 -16 -33 -5 -2 -8 -7 -5 -12 2 -4 -6 -35 -19 -68 -13 -33
-21 -63 -18 -66 3 -3 -1 -6 -8 -6 -7 0 -11 -3 -7 -6 3 -3 -5 -30 -18 -60 -13
-30 -22 -54 -19 -54 3 0 -1 -10 -8 -22 -6 -13 -13 -29 -14 -37 -2 -8 -6 -17
-11 -20 -4 -3 -8 -10 -8 -16 -1 -25 -29 -95 -38 -95 -6 0 -7 -3 -4 -7 4 -3 2
-12 -4 -20 -6 -7 -9 -13 -6 -13 3 0 0 -15 -8 -34 -14 -33 -14 -35 5 -31 11 2
22 -1 26 -6 3 -6 10 -6 17 -1 15 12 47 12 47 0 0 -5 8 -5 18 0 21 10 52 10 70
-1 6 -5 12 -5 12 0 0 4 14 8 30 8 17 1 30 -3 30 -8 0 -4 4 -5 10 -2 19 11 50
14 55 4 4 -5 12 -6 18 -2 17 11 37 12 37 3 0 -4 9 -6 20 -3 12 3 20 0 20 -6 0
-7 5 -9 10 -6 6 3 10 1 10 -4 0 -16 0 -17 10 -51 6 -20 5 -30 -2 -30 -7 0 -7
-4 0 -13 7 -8 7 -18 2 -27 -12 -18 -13 -33 -2 -27 9 6 7 -107 -2 -122 -4 -6
-2 -11 4 -11 7 0 8 -6 0 -19 -6 -12 -6 -22 -1 -25 10 -7 9 -25 -2 -43 -5 -8
-3 -13 3 -13 6 0 8 -5 4 -12 -8 -13 -7 -72 2 -102 5 -14 3 -16 -7 -11 -11 6
-12 5 -1 -6 6 -7 12 -21 12 -31 0 -19 17 -53 38 -76 7 -7 9 -18 6 -24 -4 -7
-2 -8 4 -4 6 3 14 0 19 -7 14 -25 102 -65 138 -63 19 1 35 -1 35 -5 0 -8 32
-5 48 5 7 4 12 2 12 -6 0 -9 3 -9 10 2 5 8 10 10 10 5 0 -6 12 -11 28 -12 49
-2 72 -7 72 -17 0 -5 3 -7 6 -3 12 11 72 -58 86 -100 9 -26 14 -80 13 -142 -1
-88 1 -100 17 -104 10 -3 18 -1 18 5 0 5 5 6 12 2 10 -6 47 -8 147 -5 26 1 32
4 27 17 -3 8 -2 13 3 10 10 -6 8 51 -2 61 -4 3 -2 14 3 24 7 12 7 20 0 24 -8
5 -7 12 2 23 8 9 9 17 3 19 -6 2 -8 46 -5 118 3 63 2 115 -2 115 -4 0 -3 14 2
30 5 19 5 30 -1 30 -6 0 -7 6 -3 12 11 17 12 48 3 48 -4 0 -4 14 1 30 5 19 5
30 -1 30 -6 0 -7 6 -3 12 11 17 12 48 3 48 -4 0 -4 14 1 30 5 19 5 30 -1 30
-6 0 -7 5 -3 12 12 18 11 58 -1 58 -6 0 -7 3 0 8 12 9 18 32 8 32 -5 0 -8 11
-8 25 0 14 3 25 7 25 4 0 4 10 -1 23 -6 14 -5 30 1 41 6 11 7 21 1 25 -5 3 -8
13 -8 21 1 8 -6 26 -14 40 -17 28 -51 64 -51 54 0 -3 -7 0 -17 7 -9 8 -18 13
-20 12 -1 -2 -4 -3 -5 -2 -2 0 -25 2 -51 3 -29 1 -52 8 -58 17 -5 8 -9 10 -9
5 0 -5 -6 -3 -13 3 -8 6 -16 8 -20 5 -3 -3 -12 3 -19 15 -7 12 -19 21 -26 21
-7 0 -10 5 -7 10 3 6 1 10 -5 10 -13 0 -51 61 -44 72 3 4 0 8 -6 8 -7 0 -10 7
-7 15 4 8 2 17 -4 21 -6 3 -8 12 -5 20 3 8 0 14 -7 14 -8 0 -7 4 3 10 13 9 13
11 0 20 -13 9 -13 10 0 10 11 0 9 4 -5 13 -11 6 -22 12 -25 12 -11 1 -55 29
-74 46 -11 11 -24 19 -28 19 -5 0 -7 4 -3 9 3 6 -1 13 -9 18 -8 4 -16 15 -18
23 -2 8 -6 18 -11 21 -7 5 -11 25 -19 84 -2 11 -7 23 -13 27 -6 5 -5 8 4 8 7
0 11 6 8 14 -3 8 -3 17 1 21 7 7 8 12 11 39 0 8 8 21 16 30 9 8 14 17 13 18
-2 2 7 16 20 32 12 16 22 25 22 21 0 -5 8 2 19 13 10 12 26 22 35 22 9 0 16 5
16 10 0 6 14 10 31 10 19 0 28 4 23 11 -5 8 -1 8 14 0 14 -7 23 -8 27 -1 4 6
12 7 18 3 10 -6 41 -13 75 -15 6 -1 12 -5 12 -10 0 -4 6 -8 13 -8 17 0 87 -64
87 -79 0 -7 5 -9 10 -6 6 3 10 -3 10 -14 0 -11 5 -23 10 -26 6 -3 10 -17 10
-30 0 -13 5 -25 12 -27 6 -2 8 -10 4 -17 -4 -7 -9 -37 -11 -68 -2 -33 -8 -59
-16 -64 -8 -5 -10 -9 -5 -9 6 0 1 -7 -10 -16 -10 -8 -12 -12 -4 -8 8 4 -1 -9
-20 -28 -19 -19 -37 -34 -39 -32 -2 1 -8 -2 -15 -7 -6 -6 -25 -19 -43 -29 -28
-17 -31 -23 -29 -60 2 -30 11 -51 35 -79 31 -36 41 -41 84 -42 9 0 16 -3 13
-7 -2 -4 12 -6 32 -6 42 2 77 -9 99 -31 8 -8 19 -12 25 -9 6 4 8 3 5 -3 -4 -5
5 -16 18 -23 13 -7 22 -17 19 -22 -3 -4 2 -11 10 -14 9 -3 16 -15 16 -25 0
-10 4 -19 8 -19 4 0 9 -12 10 -27 1 -15 7 -30 13 -34 8 -4 7 -8 -2 -12 -8 -3
-9 -6 -4 -6 11 -1 12 -91 1 -109 -4 -7 -3 -12 1 -12 10 0 9 -72 -1 -88 -3 -6
0 -12 6 -15 10 -3 10 -7 -1 -20 -7 -10 -9 -17 -4 -17 5 0 9 -9 10 -20 1 -11
-2 -18 -8 -15 -5 4 -6 -3 -1 -17 10 -29 9 -49 -3 -67 -5 -9 -5 -16 1 -18 10
-3 10 -195 0 -211 -3 -6 0 -12 6 -15 10 -3 10 -7 -1 -20 -9 -11 -10 -17 -2
-17 13 0 10 -22 -4 -32 -6 -5 -6 -8 1 -8 11 0 11 -46 0 -57 -3 -4 -1 -12 5
-20 9 -10 8 -17 -1 -28 -8 -9 -8 -15 -2 -15 11 0 10 -38 -1 -57 -4 -6 -3 -14
1 -17 5 -3 8 -21 5 -40 -4 -42 6 -49 63 -47 66 2 74 4 68 13 -3 5 -10 5 -16 2
-7 -5 -8 -2 -2 7 13 20 13 149 0 149 -8 0 -8 2 0 8 14 9 14 224 -1 234 -7 5
-7 8 1 8 13 0 13 218 0 239 -6 9 -5 12 1 8 6 -4 10 6 11 23 0 16 -4 32 -9 36
-5 3 -6 11 -2 17 11 17 12 216 1 223 -5 3 -5 11 1 18 6 7 9 28 7 47 -2 19 0
39 5 46 7 7 6 14 -1 18 -6 3 -8 11 -4 16 3 5 0 17 -8 26 -7 9 -8 14 -2 10 7
-4 11 5 12 23 0 16 -4 32 -9 36 -6 4 -6 10 0 18 6 7 9 28 7 47 -2 19 0 39 5
46 7 7 6 14 -1 18 -6 3 -8 11 -4 16 3 5 0 17 -8 26 -7 9 -8 14 -2 10 7 -4 11
5 12 23 0 16 -4 32 -9 36 -6 4 -6 10 1 19 5 7 8 29 6 48 -3 20 -1 39 5 42 5 4
6 12 2 18 -10 16 -12 128 -2 122 4 -3 4 7 0 22 -4 16 -6 88 -6 160 1 120 0
133 -17 139 -10 3 -18 11 -18 17 0 7 -4 6 -10 -3 -8 -12 -10 -12 -10 -1 0 8
-3 12 -6 8 -7 -7 -94 79 -94 93 0 6 0 12 0 15 1 3 -6 12 -14 20 -8 9 -13 24
-11 35 2 11 -2 20 -8 20 -7 0 -6 4 3 10 10 6 11 10 3 10 -9 0 -10 7 -3 25 7
17 6 25 -1 25 -8 0 -8 5 1 15 6 8 9 18 6 24 -3 5 2 12 11 15 15 6 15 8 3 16
-10 7 -11 10 -2 10 6 0 12 5 12 11 0 18 89 101 100 94 6 -3 10 1 10 9 0 9 7
13 20 11 11 -2 20 0 20 5 0 4 8 7 18 5 9 -1 23 2 30 8 8 6 16 6 25 -2 10 -8
17 -7 25 1 9 9 12 9 12 0 0 -7 11 -12 24 -12 14 0 28 -5 31 -10 4 -6 10 -8 14
-6 4 3 19 -6 34 -20 14 -13 31 -24 36 -24 5 0 12 -9 16 -19 3 -11 13 -22 21
-25 8 -3 12 -11 8 -17 -3 -6 -2 -14 5 -18 6 -4 12 -19 13 -34 1 -15 5 -27 9
-27 8 0 5 -32 -5 -48 -4 -7 -2 -12 6 -12 9 0 9 -3 -2 -10 -12 -8 -12 -10 -1
-10 10 0 11 -3 2 -13 -6 -8 -8 -17 -4 -20 3 -4 0 -7 -7 -7 -7 0 -10 -3 -7 -6
3 -4 1 -16 -5 -28 -7 -11 -12 -24 -13 -27 -1 -16 -75 -78 -113 -94 -35 -16
-43 -24 -41 -45 0 -14 0 -29 -1 -35 -6 -30 -4 -61 5 -67 7 -5 6 -8 -1 -8 -10
0 -10 -69 0 -97 3 -6 0 -14 -7 -17 -8 -3 -8 -5 2 -5 11 -1 11 -4 1 -16 -9 -11
-9 -15 -1 -15 7 0 9 -5 5 -11 -9 -15 -8 -114 1 -130 5 -8 4 -10 -3 -5 -7 4
-12 2 -12 -3 0 -6 5 -11 11 -11 5 0 7 -5 3 -11 -8 -14 -8 -155 1 -168 3 -5 1
-12 -4 -16 -7 -3 -7 -15 -1 -29 5 -13 6 -27 3 -30 -10 -10 -8 -86 2 -90 6 -3
6 -5 -1 -5 -9 -1 -9 -88 0 -133 2 -10 1 -18 -2 -18 -8 0 -6 -135 2 -156 3 -7
1 -16 -4 -19 -5 -3 -5 -18 0 -35 5 -17 6 -30 2 -30 -11 0 -8 -94 3 -102 6 -5
5 -8 -3 -8 -10 0 -10 -5 -2 -20 8 -15 8 -20 -2 -20 -10 0 -10 -2 1 -9 8 -5 9
-11 3 -15 -7 -4 -7 -17 -2 -36 5 -17 6 -30 2 -30 -8 0 -6 -146 2 -167 3 -7 1
-13 -4 -13 -5 0 -5 -13 0 -30 5 -16 6 -30 2 -30 -8 0 -6 -146 2 -167 3 -7 2
-13 -2 -13 -4 0 -5 -37 -2 -82 5 -80 6 -83 30 -83 14 0 28 5 32 10 5 7 8 6 8
0 0 -6 14 -9 33 -7 l32 4 1 66 c0 37 -5 70 -10 74 -8 5 -7 8 1 8 12 0 12 17 0
38 -5 6 -4 12 0 12 12 0 10 53 -2 62 -6 5 -4 8 5 8 13 0 13 1 0 10 -8 5 -10
10 -5 10 6 0 10 20 11 45 0 25 -4 45 -8 45 -5 0 -6 6 -2 12 11 18 12 48 2 54
-4 3 -5 10 -1 17 11 18 10 157 -1 157 -6 0 -5 4 2 9 15 9 15 20 0 38 -6 7 -7
13 -2 13 5 0 9 23 10 50 0 28 -4 50 -8 50 -5 0 -6 6 -2 12 11 18 12 48 2 54
-4 3 -5 11 -1 17 11 17 11 77 1 77 -5 0 -4 9 2 20 6 11 7 20 3 20 -4 0 -1 5 7
10 11 7 11 10 2 10 -8 0 -10 5 -5 13 4 6 8 18 10 26 1 8 8 18 15 22 7 5 10 9
5 9 -18 0 52 90 70 90 7 0 13 3 13 8 0 9 53 33 82 36 13 1 29 5 35 9 6 4 14 3
17 -2 10 -16 92 30 112 63 10 17 19 34 20 39 1 4 2 8 4 10 1 1 3 14 4 30 1 21
-4 30 -26 40 -15 6 -28 15 -28 20 0 4 -7 7 -15 5 -18 -4 -87 71 -78 85 3 6 1
7 -4 4 -11 -7 -23 12 -29 43 -3 19 -12 53 -14 60 -1 3 -1 10 0 15 1 6 5 26 7
45 3 19 10 43 15 54 8 14 7 17 -4 10 -13 -8 2 15 30 44 7 8 10 18 6 23 -3 5
-1 8 4 7 5 -2 19 8 31 21 12 13 21 21 21 17 0 -4 12 2 26 13 15 11 30 18 35
15 5 -3 9 -1 9 3 0 5 8 9 18 10 9 1 29 3 45 6 16 2 27 0 27 -7 0 -6 5 -4 10 4
9 13 10 13 10 0 0 -13 1 -13 10 0 5 8 10 10 10 4 0 -6 6 -11 13 -11 25 -1 42
-8 58 -25 9 -10 19 -15 23 -11 3 3 6 1 6 -6 0 -7 3 -10 8 -8 9 4 46 -35 50
-54 2 -8 8 -17 14 -20 5 -4 11 -18 11 -33 1 -14 5 -26 8 -26 4 0 9 -9 12 -20
3 -11 1 -20 -4 -20 -6 0 -5 -8 1 -20 8 -14 8 -20 0 -20 -6 0 -9 -4 -6 -9 8
-13 -23 -111 -35 -111 -6 0 -8 -4 -4 -9 3 -5 -4 -13 -16 -16 -11 -4 -18 -9
-15 -12 7 -8 -54 -53 -71 -53 -7 0 -13 -5 -13 -10 0 -6 -3 -9 -7 -9 -24 4 -30
-4 -28 -36 1 -19 -2 -35 -6 -35 -5 0 -6 -7 -3 -15 4 -8 -2 -32 -12 -53 -9 -20
-18 -39 -18 -42 -2 -10 -61 -65 -68 -62 -4 1 -8 -2 -8 -8 0 -5 -7 -10 -15 -10
-8 0 -15 -5 -15 -11 0 -6 -7 -8 -16 -5 -10 4 -13 2 -8 -6 5 -8 2 -9 -9 -5 -10
3 -17 3 -17 -1 0 -4 -20 -7 -45 -7 -25 0 -45 -3 -45 -7 0 -5 -7 -8 -16 -8 -9
0 -27 -9 -41 -20 -14 -11 -23 -20 -19 -20 4 0 0 -7 -8 -16 -9 -8 -16 -23 -17
-32 0 -9 -2 -31 -2 -49 -1 -17 -5 -35 -9 -39 -4 -4 -3 -12 2 -19 12 -14 8 -67
-5 -77 -6 -5 -6 -8 2 -8 15 0 13 -70 -2 -70 -7 0 -7 -3 0 -8 16 -11 17 -34 3
-43 -7 -5 -8 -9 -2 -9 12 0 12 -79 0 -99 -7 -11 -5 -13 9 -7 13 5 15 3 8 -6
-5 -7 -9 -30 -7 -50 1 -23 -3 -38 -10 -38 -8 0 -8 -2 0 -8 6 -4 11 -23 11 -42
0 -19 -5 -38 -11 -42 -8 -6 -8 -8 0 -8 6 0 11 -18 11 -40 0 -24 -4 -37 -10
-33 -6 4 -7 1 -1 -8 13 -20 13 -83 0 -91 -8 -6 -8 -8 0 -8 8 0 11 -31 10 -94
-2 -91 -1 -95 21 -99 13 -2 23 1 23 7 0 7 3 7 8 1 4 -5 31 -10 60 -10 28 0 52
5 52 10 0 6 4 5 8 -1 5 -8 15 -8 32 -2 20 7 22 11 10 18 -8 5 -10 10 -5 10 6
0 10 20 10 45 0 25 -4 45 -8 45 -4 0 -3 10 4 21 8 16 8 20 -1 14 -9 -6 -9 -2
0 15 7 12 8 25 4 29 -8 5 -10 46 -4 61 1 3 3 25 5 50 6 87 9 110 18 110 5 0 4
7 -3 15 -10 12 -10 15 0 15 8 0 11 3 7 6 -3 3 1 23 8 44 7 21 11 41 8 44 -4 3
-1 6 5 6 6 0 9 6 6 14 -3 8 0 17 5 21 6 3 9 11 6 16 -4 5 -1 9 4 9 6 0 11 9
11 19 0 11 5 23 10 26 6 4 8 11 5 16 -4 5 -1 9 4 9 6 0 11 9 11 20 0 11 4 20
9 20 5 0 17 17 26 38 10 20 24 41 32 45 7 5 11 12 8 18 -4 5 1 12 9 15 9 3 14
10 11 14 -3 4 2 11 11 14 8 3 12 10 9 16 -3 5 1 10 9 10 9 0 16 5 16 11 0 16
62 75 74 71 6 -2 8 -1 4 3 -3 4 20 33 52 65 32 32 56 60 53 63 -2 3 5 10 16
17 12 6 19 15 16 19 -3 5 2 12 11 15 9 4 14 9 11 12 -3 3 2 14 11 23 25 26 45
58 43 67 -2 4 4 11 13 16 9 5 16 16 16 23 0 8 5 15 10 15 6 0 10 3 9 8 -2 15
14 52 23 52 5 0 6 5 3 10 -3 6 -1 10 4 10 6 0 10 3 9 8 -3 11 23 85 36 101 6
8 9 24 8 36 -2 12 4 30 13 39 12 12 13 16 3 16 -8 0 -9 3 -3 8 10 7 14 19 21
62 8 49 13 75 14 75 2 0 7 65 13 158 1 20 -2 37 -7 37 -5 0 -3 6 3 13 6 8 8
16 6 19 -3 3 -6 26 -7 52 0 25 -5 46 -10 46 -5 0 -4 9 2 20 6 11 7 20 2 20 -5
0 -9 12 -9 26 0 15 -7 30 -14 35 -8 5 -9 9 -3 9 6 0 11 7 11 15 0 8 -5 15 -10
15 -5 0 -7 6 -4 14 3 8 3 17 -1 20 -3 4 -7 12 -8 19 -5 32 -48 143 -58 149 -7
5 -6 8 4 8 9 0 11 3 4 8 -9 6 -25 35 -78 139 -6 13 -15 23 -19 23 -5 0 -5 5
-2 10 3 6 -1 13 -9 16 -9 3 -16 12 -16 20 0 8 -4 14 -9 14 -5 0 -14 13 -21 30
-7 16 -16 27 -21 24 -5 -3 -9 0 -9 6 0 17 -96 120 -112 120 -4 0 -8 7 -8 15 0
8 -5 15 -10 15 -6 0 -20 11 -32 25 -11 13 -25 22 -30 19 -4 -3 -8 2 -8 10 0
14 -12 20 -32 17 -5 0 -8 6 -8 15 0 8 -4 12 -10 9 -5 -3 -10 -1 -10 4 0 6 -7
11 -15 11 -8 0 -15 5 -15 10 0 6 -7 10 -15 10 -8 0 -15 4 -15 8 0 5 -16 14
-35 22 -19 8 -35 17 -35 22 0 4 -6 8 -14 8 -8 0 -30 9 -48 19 -52 30 -207 79
-310 97 -87 15 -276 25 -343 17z"/>
<path d="M860 3254 c0 -7 -45 -10 -135 -9 -74 1 -132 -1 -130 -3 3 -3 -2 -10
-11 -16 -8 -6 -16 -18 -17 -26 -2 -8 -6 -21 -10 -27 -5 -8 -3 -13 7 -13 9 0
13 -6 10 -15 -4 -10 0 -13 15 -10 12 2 21 0 21 -5 0 -5 32 -8 70 -7 41 1 70
-2 70 -8 0 -7 3 -7 8 0 8 11 181 13 199 2 6 -4 14 -3 17 2 3 5 22 7 41 4 26
-3 37 0 41 11 3 9 10 13 15 11 12 -8 23 41 13 62 -4 10 -7 20 -6 23 0 3 -13 7
-31 8 -17 2 -36 7 -42 12 -7 5 -15 6 -19 2 -12 -11 -110 -9 -118 3 -5 7 -8 6
-8 -1z"/>
<path d="M4083 3242 c-13 -2 -23 -10 -23 -18 0 -8 -4 -14 -9 -14 -15 0 -5 -49
14 -70 10 -11 22 -17 27 -14 5 3 15 0 23 -6 8 -7 15 -9 15 -4 0 13 303 11 312
-1 5 -7 8 -6 8 1 0 5 17 10 38 10 67 1 82 11 82 57 0 58 -11 61 -249 62 -119
0 -226 -1 -238 -3z"/>
<path d="M1868 2873 c-6 -7 -17 -13 -26 -13 -8 0 -12 -3 -9 -7 4 -3 0 -11 -8
-17 -36 -26 -38 -125 -3 -161 33 -36 81 -57 115 -51 51 9 72 18 77 33 3 8 11
11 16 8 6 -4 9 -3 8 2 -1 4 3 18 10 30 7 12 12 26 11 30 -1 4 0 10 1 13 7 19
7 40 -1 40 -5 0 -9 8 -9 19 0 24 -58 80 -84 83 -61 5 -88 2 -98 -9z"/>
<path d="M3157 2876 c-4 -9 -12 -16 -20 -16 -30 0 -71 -130 -45 -146 5 -3 7
-12 4 -19 -3 -8 4 -17 15 -20 10 -4 19 -13 19 -21 0 -8 9 -14 19 -14 11 0 23
-5 26 -10 7 -12 95 -9 95 3 0 4 6 7 13 8 26 1 59 59 62 109 2 29 0 50 -6 50
-6 0 -7 5 -4 10 3 6 1 10 -5 10 -6 0 -8 5 -5 10 3 6 -1 10 -10 10 -9 0 -14 4
-11 9 8 12 -42 33 -86 37 -25 2 -38 -1 -38 -9 0 -8 -3 -8 -9 1 -7 11 -9 11
-14 -2z"/>
<path d="M2555 1001 c-11 -4 -44 -6 -74 -5 -33 2 -61 -2 -70 -9 -9 -7 -12 -8
-8 -1 4 8 -9 11 -43 11 -31 -1 -46 -5 -42 -12 3 -6 0 -6 -9 1 -22 17 -264 13
-281 -5 -7 -8 -8 -11 -2 -8 8 5 11 -26 10 -106 l-1 -112 364 -5 364 -5 19 -26
c23 -31 12 -73 -24 -85 -13 -4 -178 -7 -368 -7 -218 1 -347 -3 -351 -9 -12
-19 10 -81 39 -110 16 -16 44 -33 63 -37 19 -4 221 -7 449 -7 l415 1 34 24
c35 25 61 74 61 114 0 23 -3 24 -81 25 -98 2 -116 6 -125 35 -10 28 -6 48 13
70 13 14 33 17 105 17 l90 0 -2 28 c-1 15 -1 29 0 32 6 17 4 110 -3 110 -5 0
-5 5 -2 11 4 6 4 27 0 47 -4 20 -10 31 -12 24 -3 -6 -9 -9 -14 -6 -6 3 -16 1
-24 -6 -7 -6 -16 -7 -19 -2 -3 5 -88 9 -190 8 -113 -1 -182 2 -179 8 4 5 1 6
-7 1 -19 -12 -81 -15 -74 -4 6 10 6 10 -21 0z"/>
<path d="M2509 393 c-1 -5 -2 -42 -3 -83 -3 -101 11 -130 66 -130 44 0 58 32
58 132 l0 88 -60 0 c-33 0 -61 -3 -61 -7z"/>
</g>
</svg>
